<svg xmlns="http://www.w3.org/2000/svg" viewBox="0 0 100 100">
  <circle cx="50" cy="50" r="45" fill="white" stroke="#2bafd3" stroke-width="6"/>
  <g transform="translate(21,25) scale(0.9)" fill="#2bafd3" fill-rule="evenodd">
    <path d="M54.44,2.94l9.98,3.99v35.94c0,7.73-9.54,9.06-15.98,9.98,3.68-.92,6-1.94,6-9.98V10.92l-9.98-3.99,9.98-3.99ZM12.51,50.88v-21.97c0-2.21,1.67-4.7,3.68-5.59l10.32-4.43v13.97l9.98,6c2.01,1.02,6,1.06,6-2.01v-6l-3.99-2.01V.93L8.01,12.14C3.85,13.68.51,18.48.51,22.91v32.94l11.99-4.97Z"/>
  </g>
</svg>
